# xmcd CD database file
#
# Track frame offsets:
#	150
#	19459
#	34190
#	51954
#	69734
#	89224
#	103726
#	119312
#	136551
#	154004
#	173417
#	194091
#
# Disc length: 2826 seconds
#
# Revision: 1
# Processed by: cddbd v1.5.2PL0 Copyright (c) Steve Scherf et al.
# Submitted via: CDex 1.79
#
DISCID=a90b080c
DTITLE=Kellie Coffey - Walk On
DYEAR=2007
DGENRE=Country
TTITLE0=Walk On
TTITLE1=When Pigs Fly
TTITLE2=Everything She Never Wanted
TTITLE3=Strong Enough To Cry
TTITLE4=I Would Die For That
TTITLE5=I Thought I Knew You Well
TTITLE6=Bandwagon
TTITLE7=It
TTITLE8=Everywhere
TTITLE9=I Had A Dream
TTITLE10=Proud Of Me
TTITLE11=There You Go Again
EXTD=YEAR: 2007
EXTT0=
EXTT1=
EXTT2=
EXTT3=
EXTT4=
EXTT5=
EXTT6=
EXTT7=
EXTT8=
EXTT9=
EXTT10=
EXTT11=
PLAYORDER=
